M48
;Layer_Color=9474304
;FILE_FORMAT=4:4
METRIC,LZ
;TYPE=PLATED
T1F00S00C0.3000
T3F00S00C0.7000
T5F00S00C0.8500
T6F00S00C0.9000
T7F00S00C1.0000
%
T01
X0002Y00025
Y00075
Y00125
X0012825Y000825
Y00075
X001365
X0013625Y000825
X00115Y00035
X00165
Y00085
Y00125
X00215
Y00085
X00265
X00266Y00128138
X00314
X0031125Y00093
X00324Y0007225
X003345Y0006425
X0034125Y0005825
X0033975Y0007775
X00343613Y000845
X0034875Y00098
X00361Y000995
X0038Y0011
X00385Y0008
X00415
X004425Y0007925
X0046225Y000745
X0047375Y0007475
Y000815
Y0008825
X004805Y00086
Y000795
Y0007225
X004885Y0005525
X00472Y000485
Y00042
X004635Y000415
Y000485
X00440612Y000505
X00435Y0002
X00416Y0002475
X00406
X00475Y0002
X00515Y0003
X00537242Y000362
X0053675Y00074862
X00505Y00085
X0047Y0014
X0042
X0043Y0011
X0037Y0014
X00315156Y00059094
X00265Y00035
X00215
X00555Y00055
X00645Y00075
Y00125
Y00025
Y00175
Y00225
Y00275
Y00325
Y00375
Y00425
Y00475
Y00525
X0051825Y00519
X00515765Y00500485
X00521719Y00479469
X0053Y0047925
X005275Y0046525
X005075Y004765
X00492Y00462
X00484975Y00454125
X0048234Y00467512
X0047175Y00473825
X0046616Y00478825
X004595Y0045975
X00452
X0041Y00465
X0040925Y00493
X00416
X0042275
X00419771Y004985
X0041275
X00406
X0040825Y005245
X0038725Y00524
X0035225Y00523
Y005115
X00335Y0049
X0029Y00495
Y0047
X0030775Y0046175
X00285Y0044
X0027425Y00420325
X00262725Y00415
Y00426
Y004485
X0026425Y0047325
X002695Y004865
X00265875Y00493825
X00271Y00502
X0028225Y005245
X00236921Y005135
X0020375Y0051725
X0017775
X0016375Y00504475
X00158326Y00509655
X00174137Y0046725
X002005
X00208
X00209Y00478825
X00235428Y00458845
X00241Y00453825
X002365Y00443
X0023675Y00413
X002375Y003825
X0024075Y0037725
X0025075Y0037625
X00282825Y003745
X0030875Y00375
Y00367625
X00295Y0035
X00319345Y00331905
Y00324405
X00320137Y0031
X00299862Y0031
X0029Y00294
Y002885
X00266Y00289862
X00249925Y002965
X00242Y00293
Y002875
X00234Y0029075
X0022625Y00293
X00226Y0028775
X00205Y00285
X00234Y00309
X00275Y00305
X00282Y0027
X0029775Y0026725
X0030525Y00265
X003195Y0026175
X0032975Y00262175
X0033Y002885
Y00294
X00314Y00292921
X0034625Y00290485
X0036Y00295
X00378235Y00290485
X00386Y0029025
X00402Y002895
X0041
X0041775
X00426
X0044075Y0027975
X0044Y00225
X004095Y00226675
X004Y00227333
X00391
X00383
X00375362
X00361Y002205
X00353338Y00209833
X0034655Y00214925
X0034525Y0020475
X0033925Y00196493
X00354Y00192
X0033Y00158138
X00314Y001595
Y00154
X0029Y00158138
X00266Y001595
Y00154
X00242Y00158138
X00226
X0023425Y0018675
X0025025Y0018075
X0025825Y0017625
X0026Y0021
Y00235
X00281Y00227799
X003035Y00236
X003255
X00349072Y00254632
X00345Y0031
X00352175Y00346575
X00362297Y00338547
X00373Y00342
X0036375Y0036775
Y003755
X00372175Y0040325
X00377Y0040925
X00382825Y0040275
X00405Y00425
X0035
X00327825Y004085
X003125Y00402671
X0030275Y0041175
X00365Y00455
X004225Y0051325
X004545Y0050975
X004605
X0045775Y0051725
X004975Y0050975
X00536Y0049
X00505337Y00448587
X0051044Y0043475
X00515Y0042225
X00511925Y0040275
X0048025Y00428175
X004485Y0040675
X0045725Y00379
X00455Y00355
X0043Y00385
X0039Y0031
X00402Y00207
X0040975
X0043Y00185
X00426036Y00158786
X00418Y0015875
X00434Y00158138
X0047Y0018
X0049Y0023
X00528575Y00213
X00534075Y00205
X00539325Y00192925
X0027375Y00256825
X00258Y00268075
X0021Y00235
Y0021
Y0018
X00172Y001972
X00179112Y00391
X00222Y0037
X00135075Y0038875
X00123175Y00384752
X0001Y00375
Y00425
Y00475
Y00525
X00117175Y005155
X00129925Y00507175
X0012525Y005315
X0001Y00325
Y00275
X0002Y00225
Y00175
X0001Y00575
Y00625
Y00675
Y00725
Y00775
Y00825
Y00875
Y00925
X0012Y00915
X0010175Y00883
X00115Y0073
X00125Y00655
X0012Y00605
X0010825Y00592
X0013525Y00568825
X00134175Y0054775
X0010125Y00547
X002015Y0058125
Y0058875
X002115
Y0058125
X00235Y0059
X0022Y00605
X00254Y0065825
X00255Y0074
X0025425Y007575
Y0076375
X00263Y0078
X00285Y0076
Y0074
X00309
X0033925Y0074225
X00348702Y00741983
X00343716Y00756966
X0032675Y007665
X0032738Y007915
X0033525Y008105
X002985
X00254Y008185
X0026Y0085
X0026575Y008685
X002655Y0092
X003125Y009235
X003375Y00924172
X00356Y00919
Y009115
X0041Y0091
X00415Y00875
X0041Y0084
X0039225Y008135
X004205Y0080425
Y0079425
Y0078425
X00445Y0078
X00475
X00485Y0081
X005135Y0082275
X00505Y00845
X00457842Y00842158
X00445Y00925
X003275Y008828
X0031825Y0089075
X00318Y00869
X0021Y0085
X00215Y00895
X00165
X0021Y008
X0021175Y0070275
X0020425
X0019675
X0020025Y0069675
X00208Y00697
X003185Y0068725
X003515Y0067975
X00379632Y00709868
X003945Y0069975
X004185Y00692
X004285Y0065475
X0043725
X00450197Y00635697
X004555Y00641
X0046175Y00646325
X0045Y00605
X0045175Y00575
X0045975
X00419Y00573825
Y00561857
X004115Y0058
X003925Y0059
X003775Y005915
X003625
X00347825Y0058225
X003425Y0057625
X00332473Y00591825
X003175Y00589838
X0032125Y0061825
Y0062575
X0038875Y006265
Y006205
X00391Y00739
X00378
X00367Y00732
X00407Y007455
X004225Y007405
X00429
X0043575
X004565Y007175
X005035Y007175
X00508974Y00717248
X0052575Y00728
X0048275Y00741
X00477Y0068425
X005Y0067
X00535Y0066
X005Y00605
X005135Y0078275
X003725Y0078575
X003665
X0033125Y00556
X00323235Y00556735
X0054Y00605
X00645Y00625
Y00675
Y00725
Y00775
Y00825
Y00875
Y00925
X0060475Y00894
Y008865
X0059475
Y00894
X00575Y00845
X00645Y00575
X0061945Y009548
X006245Y009725
Y00981
Y0099
X00637
Y00981
X0063701Y00972573
X00645Y01025
Y01075
Y01125
X0056Y01105
Y01055
X0051
Y01105
X00484Y0108675
X00456Y01074201
X0046Y01055
Y01005
Y00955
X0043175Y00979
X0039025Y0097675
X00384Y00993
X003865Y01001
X00394
X00363672Y009975
X003575Y0102675
X003275Y01002
X0031815Y010075
X003075Y01008172
X003015Y0102725
X002915Y0104325
X003145
X003105Y0106275
X00319Y01063
X00317Y0110625
X00265Y0109
X0023Y0112
Y01055
X00215Y01025
X0023575Y0100425
Y0099625
X002415Y0098075
X0024525Y009725
X0024175Y00964
X002455Y0095525
X00245Y009475
X00226Y0094375
X0021125Y0095525
X00206Y009765
X00155Y00975
X00165Y01025
X0018Y01055
X00168241Y010827
X0014975Y0110075
X00143
X00266Y01004
X002735
X00296328Y009925
Y009675
X002735Y00964
X00266
X0034Y0094625
X003475Y0094675
X0036075Y00958
X00375Y01072
X003825
X00406Y0107875
X0041575Y01105
X0040075Y011245
X00449Y011245
X004755Y01127
X0013Y0112
X00115191Y0110425
X0008Y0112
X0001Y01125
Y01075
Y01025
X0006
X00105Y01005
X0013Y01055
X0001Y00975
T03
X003035Y00721
X003525
X0018Y00949
Y00998
T05
X00305Y010965
X00355
T06
X0053Y009042
Y009296
X00571
Y009042
Y00955
Y009804
X0053
Y00955
T07
X000526Y000262
Y000516
Y00077
Y001024
Y001278
X00078
Y001024
Y00077
Y000516
Y000262
X00572
Y000516
Y00077
Y001024
Y001278
X005974
Y001024
Y00077
Y000516
Y000262
Y001532
Y001786
Y00204
Y002294
Y002548
Y002802
Y003056
Y00331
Y003564
Y003818
Y004072
Y004326
Y00458
Y004834
Y005088
Y005342
X00572
Y005088
Y004834
Y00458
Y004326
Y004072
Y003818
Y003564
Y00331
Y003056
Y002802
Y002548
Y002294
Y00204
Y001786
Y001532
X00078
Y001786
Y00204
Y002294
Y002548
Y002802
Y003056
Y00331
Y003564
Y003818
Y004072
Y004326
Y00458
Y004834
Y005088
Y005342
X000526
Y005088
Y004834
Y00458
Y004326
Y004072
Y003818
Y003564
Y00331
Y003056
Y002802
Y002548
Y002294
Y00204
Y001786
Y001532
Y005596
Y00585
Y006104
Y006358
Y006612
Y006866
Y00712
Y007374
Y007628
Y007882
Y008136
X00078
Y007882
Y007628
Y007374
Y00712
Y006866
Y006612
Y006358
Y006104
Y00585
Y005596
X00055Y008575
Y008829
Y009083
Y009337
X001446Y0085
X0017
X002922Y00835
X003176
X00343
X003684
X00572Y008136
X005974
Y007882
X00572
Y007628
X005974
Y007374
X00572
Y00712
X005974
Y006866
X00572
Y006612
X005974
Y006358
X00572
Y006104
X005974
Y00585
X00572
Y005596
X005974
X006Y010573
Y010827
X00054
Y010573
X00055Y009845
Y009591
M30
